<?xml version="1.0" standalone="no"?>
<!DOCTYPE svg PUBLIC "-//W3C//DTD SVG 20010904//EN"
 "http://www.w3.org/TR/2001/REC-SVG-20010904/DTD/svg10.dtd">
<svg version="1.0" xmlns="http://www.w3.org/2000/svg"
 width="280.000000pt" height="280.000000pt" viewBox="0 0 280.000000 280.000000"
 preserveAspectRatio="xMidYMid meet">
<metadata>
Created by potrace 1.11, written by Peter Selinger 2001-2013
</metadata>
<g transform="translate(0.000000,280.000000) scale(0.100000,-0.100000)"
fill="#000000" stroke="none">
<path d="M770 2540 l0 -150 -150 0 -150 0 0 -450 0 -450 150 0 150 0 0 150 0
151 149 -2 150 -1 1 -225 c1 -215 0 -225 -17 -212 -16 12 -17 12 -6 -2 7 -9 9
-20 5 -25 -4 -4 0 -3 9 4 12 9 94 11 315 9 l299 -2 -3 228 -3 227 151 0 150 0
0 -225 0 -225 300 0 300 0 0 300 0 300 -731 0 c-581 0 -729 3 -723 13 6 10 4
10 -7 0 -30 -29 -39 -15 -39 62 l0 75 433 0 c237 0 507 0 600 0 l167 0 0 150
0 150 -150 0 -150 0 0 150 0 150 -600 0 -600 0 0 -150z m749 -835 c-1 -61 -5
-85 -15 -85 -7 0 -15 6 -17 13 -4 9 -6 9 -6 -1 -1 -8 7 -16 18 -19 21 -5 26
-53 7 -65 -8 -6 -7 -8 2 -8 6 0 12 -11 12 -25 l0 -25 -121 0 c-93 0 -119 3
-113 13 6 10 4 10 -7 0 -7 -7 -24 -13 -36 -13 l-24 0 2 149 1 149 149 1 150 2
-2 -86z m901 -60 l0 -145 -150 0 -150 0 0 145 0 145 150 0 150 0 0 -145z"/>
<path d="M1255 1750 c3 -5 11 -10 16 -10 6 0 7 5 4 10 -3 6 -11 10 -16 10 -6
0 -7 -4 -4 -10z"/>
<path d="M1318 1623 c7 -3 16 -2 19 1 4 3 -2 6 -13 5 -11 0 -14 -3 -6 -6z"/>
<path d="M905 1770 c3 -5 8 -10 11 -10 2 0 4 5 4 10 0 6 -5 10 -11 10 -5 0 -7
-4 -4 -10z"/>
<path d="M1850 1580 c-9 -6 -10 -10 -3 -10 6 0 15 5 18 10 8 12 4 12 -15 0z"/>
<path d="M898 1483 c7 -3 16 -2 19 1 4 3 -2 6 -13 5 -11 0 -14 -3 -6 -6z"/>
<path d="M958 1483 c7 -3 16 -2 19 1 4 3 -2 6 -13 5 -11 0 -14 -3 -6 -6z"/>
<path d="M1930 1480 c-13 -8 -12 -10 3 -10 9 0 17 5 17 10 0 12 -1 12 -20 0z"/>
<path d="M838 1413 c7 -3 16 -2 19 1 4 3 -2 6 -13 5 -11 0 -14 -3 -6 -6z"/>
<path d="M1038 1383 c7 -3 16 -2 19 1 4 3 -2 6 -13 5 -11 0 -14 -3 -6 -6z"/>
<path d="M785 1359 c-4 -6 -4 -13 -1 -16 3 -4 6 -1 6 6 0 7 5 9 12 5 7 -4 8
-3 4 4 -9 15 -13 15 -21 1z"/>
<path d="M1935 1349 c-4 -6 -5 -12 -2 -15 2 -3 7 2 10 11 7 17 1 20 -8 4z"/>
<path d="M1350 1320 c-9 -6 -10 -10 -3 -10 6 0 15 5 18 10 8 12 4 12 -15 0z"/>
<path d="M840 1305 c0 -5 5 -17 10 -25 5 -8 10 -10 10 -5 0 6 -5 17 -10 25 -5
8 -10 11 -10 5z"/>
<path d="M1595 1290 c3 -5 8 -10 11 -10 2 0 4 5 4 10 0 6 -5 10 -11 10 -5 0
-7 -4 -4 -10z"/>
<path d="M1135 1241 c-3 -5 -2 -12 3 -15 5 -3 9 1 9 9 0 17 -3 19 -12 6z"/>
<path d="M785 1209 c-4 -6 -5 -12 -2 -15 2 -3 7 2 10 11 7 17 1 20 -8 4z"/>
<path d="M1768 1213 c7 -3 16 -2 19 1 4 3 -2 6 -13 5 -11 0 -14 -3 -6 -6z"/>
<path d="M1645 1200 c-4 -7 -107 -10 -287 -10 -154 1 -282 -1 -285 -4 -3 -2
-4 -70 -4 -150 l1 -146 -300 0 -300 0 0 -150 0 -150 -150 0 -150 0 0 -295 0
-295 225 0 225 0 0 145 0 145 75 0 75 0 0 -145 0 -145 375 0 375 0 0 70 0 70
75 0 75 0 0 -70 0 -70 300 0 300 0 0 295 0 295 -150 0 -150 0 0 150 0 150
-150 0 -150 0 0 150 c0 99 -4 150 -11 150 -5 0 -7 5 -4 10 3 6 4 10 1 10 -3 0
-8 -5 -11 -10z m-725 -835 l0 -75 -75 0 -75 0 0 75 0 75 75 0 75 0 0 -75z
m750 0 l0 -75 75 0 75 0 0 -75 0 -75 -75 0 -75 0 0 75 0 75 -75 0 -75 0 0 75
0 75 75 0 75 0 0 -75z"/>
<path d="M885 1000 c-3 -5 -1 -10 4 -10 6 0 11 5 11 10 0 6 -2 10 -4 10 -3 0
-8 -4 -11 -10z"/>
<path d="M812 914 c-7 -8 -8 -14 -3 -14 10 0 25 19 20 25 -2 1 -10 -3 -17 -11z"/>
</g>
</svg>
